<?xml version="1.0" standalone="no"?>
<!DOCTYPE svg PUBLIC "-//W3C//DTD SVG 20010904//EN"
 "http://www.w3.org/TR/2001/REC-SVG-20010904/DTD/svg10.dtd">
<svg version="1.0" xmlns="http://www.w3.org/2000/svg"
 width="500.000000pt" height="500.000000pt" viewBox="0 0 500.000000 500.000000"
 preserveAspectRatio="xMidYMid meet">

<g transform="translate(0.000000,500.000000) scale(0.100000,-0.100000)"
fill="#000000" stroke="none">
<path d="M1280 4630 l0 -80 -235 0 -235 0 0 -155 0 -155 80 0 80 0 0 -80 0
-80 -315 0 -315 0 2 -232 3 -233 78 -3 77 -3 0 -74 0 -75 155 0 155 0 0 -80 0
-80 81 0 82 0 -3 -382 c-2 -211 -2 -420 -2 -465 l2 -83 75 0 75 0 0 -80 0 -80
80 0 80 0 0 -80 0 -80 470 0 470 0 0 -75 0 -75 -80 0 -80 0 0 -80 0 -80 -310
0 -310 0 0 -75 0 -74 -157 -3 -158 -3 -3 -77 -3 -78 -74 0 -75 0 0 -235 0
-235 -80 0 -80 0 2 -232 3 -233 78 -3 77 -3 0 -74 0 -75 1635 0 1635 0 0 75 0
75 80 0 80 0 0 160 0 160 -80 0 -80 0 0 230 0 230 -75 0 -75 0 0 80 0 80 -155
0 -154 0 -3 78 -3 77 -157 3 -158 3 0 74 0 75 -230 0 -230 0 0 315 0 315 75 0
75 0 0 465 0 465 -75 0 -75 0 0 235 0 235 75 0 75 0 0 235 0 235 -75 0 -75 0
0 75 0 75 -235 0 -235 0 0 80 0 80 -80 0 -80 0 0 80 0 80 -155 0 -155 0 0 -80
0 -80 -235 0 -235 0 0 80 0 80 -155 0 -155 0 0 -80z m1248 -1567 l2 -393 75 0
75 0 0 -150 0 -149 -77 -3 -78 -3 -3 -78 -3 -77 -617 2 -617 3 -3 78 -3 77
-74 0 -75 0 0 465 0 465 150 0 150 0 0 -75 0 -75 -75 0 -75 0 0 -235 0 -235
80 0 80 0 0 230 0 229 153 3 152 3 3 77 3 77 77 3 77 3 3 78 3 77 307 -2 307
-3 3 -392z m462 -153 l0 -230 -150 0 -150 0 0 155 0 155 75 0 75 0 0 75 0 75
75 0 75 0 0 -230z m-150 -1010 l0 -309 78 -3 77 -3 0 -545 0 -545 -77 -3 -78
-3 0 311 0 310 -155 0 -155 0 0 -70 0 -69 78 -3 77 -3 0 -235 0 -235 -235 0
-235 0 0 235 0 235 78 3 77 3 0 69 0 70 -155 0 -155 0 0 -310 0 -310 -155 0
-155 0 0 160 0 160 75 0 75 0 2 387 3 388 78 3 77 3 0 74 0 75 80 0 80 0 0 80
0 80 75 0 75 0 0 75 0 75 80 0 80 0 0 80 0 80 155 0 155 0 0 -310z"/>
<path d="M2060 2915 l0 -235 80 0 80 0 0 235 0 235 -80 0 -80 0 0 -235z"/>
<path d="M1432 2443 l3 -78 313 -3 312 -2 0 80 0 80 -315 0 -316 0 3 -77z"/>
<path d="M2380 805 l0 -155 70 0 70 0 0 155 0 155 -70 0 -70 0 0 -155z"/>
</g>
</svg>
